<svg width="128" height="128" viewBox="0 0 128 128" fill="none" xmlns="http://www.w3.org/2000/svg">
  <defs>
    <linearGradient id="warmGradient" x1="20" y1="16" x2="108" y2="112" gradientUnits="userSpaceOnUse">
      <stop stop-color="#D99147" />
      <stop offset="1" stop-color="#A65127" />
    </linearGradient>
    <linearGradient id="tealGlow" x1="82" y1="34" x2="108" y2="58" gradientUnits="userSpaceOnUse">
      <stop stop-color="#0E7A7F" />
      <stop offset="1" stop-color="#63B6AF" />
    </linearGradient>
  </defs>
  <rect x="8" y="8" width="112" height="112" rx="32" fill="url(#warmGradient)" />
  <rect x="14" y="14" width="100" height="100" rx="26" stroke="#FFF8EF" stroke-opacity="0.35" stroke-width="2" />
  <circle cx="96" cy="34" r="10" fill="url(#tealGlow)" />
  <path
    d="M39 40H56.5C70.9 40 80 48.7 80 63.9C80 79.2 70.9 88 56.5 88H39V40ZM54.9 76.4C62.4 76.4 66.8 71.8 66.8 63.9C66.8 56 62.4 51.6 54.9 51.6H52.7V76.4H54.9Z"
    fill="#FFF8EF"
  />
  <path
    d="M35 96.5C36.5 91.2 40.9 88 46.1 88C49.9 88 53.6 89.9 56.3 94.6L53.1 96.5C51.3 93.4 48.8 92.1 46.2 92.1C43.1 92.1 40.4 94 39.5 97.2L35 96.5Z"
    fill="#FFF1DE"
  />
</svg>
